<mxfile host="Electron" modified="2024-05-12T08:03:26.673Z" agent="Mozilla/5.0 (Windows NT 10.0; Win64; x64) AppleWebKit/537.36 (KHTML, like Gecko) draw.io/24.2.5 Chrome/120.0.6099.109 Electron/28.1.0 Safari/537.36" etag="W3gMkvTpJcyXl1SruyGZ" version="24.2.5" type="device" pages="2">
  <diagram name="Page-1" id="52a04d89-c75d-2922-d76d-85b35f80e030">
    <mxGraphModel dx="1418" dy="820" grid="1" gridSize="10" guides="1" tooltips="1" connect="1" arrows="1" fold="1" page="1" pageScale="1" pageWidth="1100" pageHeight="850" background="none" math="0" shadow="0">
      <root>
        <mxCell id="0" />
        <mxCell id="1" parent="0" />
        <mxCell id="W93FtXMlNwf8EBUhQkcp-1" value="" style="whiteSpace=wrap;html=1;aspect=fixed;" vertex="1" parent="1">
          <mxGeometry x="360" y="70" width="570" height="570" as="geometry" />
        </mxCell>
        <mxCell id="W93FtXMlNwf8EBUhQkcp-2" value="Actor" style="shape=umlActor;verticalLabelPosition=bottom;verticalAlign=top;html=1;outlineConnect=0;" vertex="1" parent="1">
          <mxGeometry x="250" y="220" width="30" height="60" as="geometry" />
        </mxCell>
        <mxCell id="W93FtXMlNwf8EBUhQkcp-4" value="Plataforma de Clientes" style="text;html=1;align=center;verticalAlign=middle;whiteSpace=wrap;rounded=0;fontStyle=1;fontSize=16;" vertex="1" parent="1">
          <mxGeometry x="460" y="80" width="290" height="30" as="geometry" />
        </mxCell>
        <mxCell id="W93FtXMlNwf8EBUhQkcp-5" value="Registrar Usuario" style="ellipse;whiteSpace=wrap;html=1;" vertex="1" parent="1">
          <mxGeometry x="430" y="120" width="120" height="80" as="geometry" />
        </mxCell>
        <mxCell id="W93FtXMlNwf8EBUhQkcp-6" value="Cambiar Cuenta de Usuario" style="ellipse;whiteSpace=wrap;html=1;" vertex="1" parent="1">
          <mxGeometry x="530" y="220" width="120" height="80" as="geometry" />
        </mxCell>
        <mxCell id="W93FtXMlNwf8EBUhQkcp-7" value="Cambiar Contrasena" style="ellipse;whiteSpace=wrap;html=1;" vertex="1" parent="1">
          <mxGeometry x="620" y="330" width="120" height="80" as="geometry" />
        </mxCell>
        <mxCell id="W93FtXMlNwf8EBUhQkcp-8" value="Crear Cuenta Bancaria" style="ellipse;whiteSpace=wrap;html=1;" vertex="1" parent="1">
          <mxGeometry x="610" y="120" width="120" height="80" as="geometry" />
        </mxCell>
        <mxCell id="W93FtXMlNwf8EBUhQkcp-9" value="Generar Tarjeta" style="ellipse;whiteSpace=wrap;html=1;" vertex="1" parent="1">
          <mxGeometry x="720" y="210" width="120" height="80" as="geometry" />
        </mxCell>
        <mxCell id="W93FtXMlNwf8EBUhQkcp-10" value="" style="endArrow=none;dashed=1;html=1;rounded=0;exitX=1;exitY=0.5;exitDx=0;exitDy=0;" edge="1" parent="1" source="W93FtXMlNwf8EBUhQkcp-5" target="W93FtXMlNwf8EBUhQkcp-8">
          <mxGeometry width="50" height="50" relative="1" as="geometry">
            <mxPoint x="790" y="430" as="sourcePoint" />
            <mxPoint x="840" y="380" as="targetPoint" />
          </mxGeometry>
        </mxCell>
        <mxCell id="W93FtXMlNwf8EBUhQkcp-11" value="" style="endArrow=none;dashed=1;html=1;rounded=0;" edge="1" parent="1" source="W93FtXMlNwf8EBUhQkcp-9" target="W93FtXMlNwf8EBUhQkcp-8">
          <mxGeometry width="50" height="50" relative="1" as="geometry">
            <mxPoint x="790" y="430" as="sourcePoint" />
            <mxPoint x="840" y="380" as="targetPoint" />
          </mxGeometry>
        </mxCell>
        <mxCell id="W93FtXMlNwf8EBUhQkcp-12" value="" style="endArrow=classic;html=1;rounded=0;" edge="1" parent="1" source="W93FtXMlNwf8EBUhQkcp-2" target="W93FtXMlNwf8EBUhQkcp-5">
          <mxGeometry width="50" height="50" relative="1" as="geometry">
            <mxPoint x="790" y="430" as="sourcePoint" />
            <mxPoint x="840" y="380" as="targetPoint" />
          </mxGeometry>
        </mxCell>
        <mxCell id="W93FtXMlNwf8EBUhQkcp-13" value="" style="endArrow=classic;html=1;rounded=0;" edge="1" parent="1" target="W93FtXMlNwf8EBUhQkcp-6">
          <mxGeometry width="50" height="50" relative="1" as="geometry">
            <mxPoint x="290" y="240" as="sourcePoint" />
            <mxPoint x="449" y="191" as="targetPoint" />
          </mxGeometry>
        </mxCell>
        <mxCell id="W93FtXMlNwf8EBUhQkcp-14" value="" style="endArrow=classic;html=1;rounded=0;entryX=0.017;entryY=0.363;entryDx=0;entryDy=0;entryPerimeter=0;" edge="1" parent="1" target="W93FtXMlNwf8EBUhQkcp-7">
          <mxGeometry width="50" height="50" relative="1" as="geometry">
            <mxPoint x="280" y="240" as="sourcePoint" />
            <mxPoint x="459" y="201" as="targetPoint" />
          </mxGeometry>
        </mxCell>
        <mxCell id="W93FtXMlNwf8EBUhQkcp-15" value="Cambiar PIN" style="ellipse;whiteSpace=wrap;html=1;" vertex="1" parent="1">
          <mxGeometry x="480" y="360" width="120" height="80" as="geometry" />
        </mxCell>
        <mxCell id="W93FtXMlNwf8EBUhQkcp-16" value="Extracto" style="ellipse;whiteSpace=wrap;html=1;" vertex="1" parent="1">
          <mxGeometry x="390" y="450" width="120" height="80" as="geometry" />
        </mxCell>
        <mxCell id="W93FtXMlNwf8EBUhQkcp-18" value="" style="endArrow=classic;html=1;rounded=0;entryX=0.325;entryY=0.05;entryDx=0;entryDy=0;entryPerimeter=0;" edge="1" parent="1" target="W93FtXMlNwf8EBUhQkcp-16">
          <mxGeometry width="50" height="50" relative="1" as="geometry">
            <mxPoint x="290" y="240" as="sourcePoint" />
            <mxPoint x="840" y="380" as="targetPoint" />
          </mxGeometry>
        </mxCell>
        <mxCell id="W93FtXMlNwf8EBUhQkcp-19" value="" style="endArrow=classic;html=1;rounded=0;" edge="1" parent="1">
          <mxGeometry width="50" height="50" relative="1" as="geometry">
            <mxPoint x="300" y="250" as="sourcePoint" />
            <mxPoint x="507" y="382" as="targetPoint" />
          </mxGeometry>
        </mxCell>
      </root>
    </mxGraphModel>
  </diagram>
  <diagram id="9ZKXqyxvd2sPAkBCV6iC" name="PÃ¡gina-2">
    <mxGraphModel dx="1418" dy="820" grid="1" gridSize="10" guides="1" tooltips="1" connect="1" arrows="1" fold="1" page="1" pageScale="1" pageWidth="1400" pageHeight="850" math="0" shadow="0">
      <root>
        <mxCell id="0" />
        <mxCell id="1" parent="0" />
      </root>
    </mxGraphModel>
  </diagram>
</mxfile>
